<svg width="128" height="128" viewBox="0 0 128 128" fill="none" xmlns="http://www.w3.org/2000/svg">
  <!-- Background -->
  <rect width="128" height="128" rx="24" fill="#1a1a1a"/>

  <!-- Q letter -->
  <path d="M64 28C45.222 28 30 43.222 30 62C30 76.359 39.333 88.549 52.267 93.267L46 106H58L64.533 93.867C64.356 93.867 64.178 93.867 64 93.867C82.778 93.867 98 78.644 98 59.867C98 43.222 82.778 28 64 28ZM64 80C52.954 80 44 71.046 44 60C44 48.954 52.954 40 64 40C75.046 40 84 48.954 84 60C84 71.046 75.046 80 64 80Z" fill="white"/>

  <!-- Connection dots -->
  <circle cx="100" cy="28" r="8" fill="#22c55e"/>
  <circle cx="100" cy="28" r="4" fill="white"/>
</svg>
